<svg width="17" height="17" viewBox="0 0 17 17" fill="none" xmlns="http://www.w3.org/2000/svg">
<path fill-rule="evenodd" clip-rule="evenodd" d="M5.13542 7.08333C5.13542 5.22513 6.6418 3.71875 8.50001 3.71875C10.3582 3.71875 11.8646 5.22513 11.8646 7.08333C11.8646 8.94154 10.3582 10.4479 8.50001 10.4479C6.6418 10.4479 5.13542 8.94154 5.13542 7.08333ZM8.50001 4.78125C7.2286 4.78125 6.19792 5.81193 6.19792 7.08333C6.19792 8.35474 7.2286 9.38542 8.50001 9.38542C9.77141 9.38542 10.8021 8.35474 10.8021 7.08333C10.8021 5.81193 9.77141 4.78125 8.50001 4.78125Z" fill="#FF5A3C"/>
<path fill-rule="evenodd" clip-rule="evenodd" d="M2.49643 6.2736C2.74741 3.22875 5.29185 0.885417 8.34703 0.885417H8.65299C11.7082 0.885417 14.2526 3.22875 14.5036 6.2736C14.6384 7.90925 14.1332 9.53338 13.0943 10.8039L9.6992 14.956C9.07941 15.714 7.92061 15.714 7.30082 14.956L3.90573 10.8039C2.86685 9.53338 2.36161 7.90925 2.49643 6.2736ZM8.34703 1.94792C5.84482 1.94792 3.7609 3.86713 3.55534 6.36089C3.44313 7.72219 3.86363 9.07392 4.72826 10.1313L8.12335 14.2834C8.31802 14.5215 8.68199 14.5215 8.87667 14.2834L12.2718 10.1313C13.1364 9.07392 13.5569 7.72219 13.4447 6.36089C13.2391 3.86713 11.1552 1.94792 8.65299 1.94792H8.34703Z" fill="#FF5A3C"/>
</svg>
